<svg width="75" height="22" viewBox="0 0 75 22" fill="none" xmlns="http://www.w3.org/2000/svg">
<path d="M40.75 10.5156V11.7422H34.5938V10.5156H40.75ZM34.8281 5.625V17H33.3203V5.625H34.8281ZM42.0625 5.625V17H40.5625V5.625H42.0625ZM43.8206 12.8672V12.6875C43.8206 12.0781 43.9092 11.513 44.0863 10.9922C44.2633 10.4661 44.5185 10.0104 44.8519 9.625C45.1852 9.23438 45.5889 8.93229 46.0628 8.71875C46.5368 8.5 47.068 8.39062 47.6566 8.39062C48.2503 8.39062 48.7842 8.5 49.2581 8.71875C49.7373 8.93229 50.1435 9.23438 50.4769 9.625C50.8154 10.0104 51.0732 10.4661 51.2503 10.9922C51.4274 11.513 51.5159 12.0781 51.5159 12.6875V12.8672C51.5159 13.4766 51.4274 14.0417 51.2503 14.5625C51.0732 15.0833 50.8154 15.5391 50.4769 15.9297C50.1435 16.3151 49.7399 16.6172 49.2659 16.8359C48.7972 17.0495 48.2659 17.1562 47.6722 17.1562C47.0784 17.1562 46.5446 17.0495 46.0706 16.8359C45.5967 16.6172 45.1904 16.3151 44.8519 15.9297C44.5185 15.5391 44.2633 15.0833 44.0863 14.5625C43.9092 14.0417 43.8206 13.4766 43.8206 12.8672ZM45.2659 12.6875V12.8672C45.2659 13.2891 45.3154 13.6875 45.4144 14.0625C45.5133 14.4323 45.6618 14.7604 45.8597 15.0469C46.0628 15.3333 46.3154 15.5599 46.6175 15.7266C46.9196 15.888 47.2711 15.9688 47.6722 15.9688C48.068 15.9688 48.4144 15.888 48.7113 15.7266C49.0133 15.5599 49.2633 15.3333 49.4613 15.0469C49.6592 14.7604 49.8076 14.4323 49.9066 14.0625C50.0107 13.6875 50.0628 13.2891 50.0628 12.8672V12.6875C50.0628 12.2708 50.0107 11.8776 49.9066 11.5078C49.8076 11.1328 49.6566 10.8021 49.4534 10.5156C49.2555 10.224 49.0055 9.99479 48.7034 9.82812C48.4066 9.66146 48.0576 9.57812 47.6566 9.57812C47.2607 9.57812 46.9118 9.66146 46.6097 9.82812C46.3128 9.99479 46.0628 10.224 45.8597 10.5156C45.6618 10.8021 45.5133 11.1328 45.4144 11.5078C45.3154 11.8776 45.2659 12.2708 45.2659 12.6875ZM54.4459 10.2266V17H52.9928V8.54688H54.3678L54.4459 10.2266ZM54.1491 12.4531L53.4772 12.4297C53.4824 11.8516 53.5579 11.3177 53.7038 10.8281C53.8496 10.3333 54.0657 9.90365 54.3522 9.53906C54.6386 9.17448 54.9954 8.89323 55.4225 8.69531C55.8496 8.49219 56.3444 8.39062 56.9069 8.39062C57.3027 8.39062 57.6673 8.44792 58.0006 8.5625C58.334 8.67188 58.623 8.84635 58.8678 9.08594C59.1126 9.32552 59.3027 9.63281 59.4381 10.0078C59.5735 10.3828 59.6413 10.8359 59.6413 11.3672V17H58.1959V11.4375C58.1959 10.9948 58.1204 10.6406 57.9694 10.375C57.8235 10.1094 57.6152 9.91667 57.3444 9.79688C57.0735 9.67188 56.7558 9.60938 56.3913 9.60938C55.9642 9.60938 55.6074 9.6849 55.3209 9.83594C55.0345 9.98698 54.8053 10.1953 54.6334 10.4609C54.4616 10.7266 54.3366 11.0312 54.2584 11.375C54.1855 11.7135 54.1491 12.0729 54.1491 12.4531ZM59.6256 11.6562L58.6569 11.9531C58.6621 11.4896 58.7376 11.0443 58.8834 10.6172C59.0345 10.1901 59.2506 9.8099 59.5319 9.47656C59.8183 9.14323 60.1699 8.88021 60.5866 8.6875C61.0032 8.48958 61.4798 8.39062 62.0163 8.39062C62.4694 8.39062 62.8704 8.45052 63.2194 8.57031C63.5735 8.6901 63.8704 8.875 64.11 9.125C64.3548 9.36979 64.5397 9.6849 64.6647 10.0703C64.7897 10.4557 64.8522 10.9141 64.8522 11.4453V17H63.3991V11.4297C63.3991 10.9557 63.3235 10.5885 63.1725 10.3281C63.0267 10.0625 62.8183 9.8776 62.5475 9.77344C62.2819 9.66406 61.9642 9.60938 61.5944 9.60938C61.2767 9.60938 60.9954 9.66406 60.7506 9.77344C60.5058 9.88281 60.3001 10.0339 60.1334 10.2266C59.9668 10.4141 59.8392 10.6302 59.7506 10.875C59.6673 11.1198 59.6256 11.3802 59.6256 11.6562ZM70.2275 17.1562C69.639 17.1562 69.1051 17.0573 68.6259 16.8594C68.152 16.6562 67.7431 16.3724 67.3994 16.0078C67.0608 15.6432 66.8004 15.2109 66.6181 14.7109C66.4358 14.2109 66.3447 13.6641 66.3447 13.0703V12.7422C66.3447 12.0547 66.4463 11.4427 66.6494 10.9062C66.8525 10.3646 67.1285 9.90625 67.4775 9.53125C67.8265 9.15625 68.2223 8.8724 68.665 8.67969C69.1077 8.48698 69.566 8.39062 70.04 8.39062C70.6442 8.39062 71.165 8.49479 71.6025 8.70312C72.0452 8.91146 72.4072 9.20312 72.6884 9.57812C72.9697 9.94792 73.178 10.3854 73.3134 10.8906C73.4489 11.3906 73.5166 11.9375 73.5166 12.5312V13.1797H67.2041V12H72.0713V11.8906C72.0504 11.5156 71.9723 11.151 71.8369 10.7969C71.7067 10.4427 71.4983 10.151 71.2119 9.92188C70.9254 9.69271 70.5348 9.57812 70.04 9.57812C69.7119 9.57812 69.4098 9.64844 69.1338 9.78906C68.8577 9.92448 68.6207 10.1276 68.4228 10.3984C68.2249 10.6693 68.0713 11 67.9619 11.3906C67.8525 11.7812 67.7978 12.2318 67.7978 12.7422V13.0703C67.7978 13.4714 67.8525 13.849 67.9619 14.2031C68.0765 14.5521 68.2405 14.8594 68.4541 15.125C68.6728 15.3906 68.9358 15.599 69.2431 15.75C69.5556 15.901 69.9098 15.9766 70.3056 15.9766C70.816 15.9766 71.2483 15.8724 71.6025 15.6641C71.9567 15.4557 72.2666 15.1771 72.5322 14.8281L73.4072 15.5234C73.2249 15.7995 72.9931 16.0625 72.7119 16.3125C72.4306 16.5625 72.0843 16.7656 71.6728 16.9219C71.2666 17.0781 70.7848 17.1562 70.2275 17.1562Z" fill="white"/>
<path d="M13.7499 22H17.8748C18.2543 22 18.5623 21.692 18.5623 21.3125V11.6875H21.3123C21.5904 11.6875 21.841 11.5201 21.9475 11.2629C22.0541 11.0061 21.9953 10.7105 21.7984 10.5139L11.4859 0.201352C11.2175 -0.0671175 10.7823 -0.0671175 10.5138 0.201352L0.201413 10.5139C0.0047898 10.7105 -0.053991 11.0061 0.0522269 11.2629C0.158789 11.5201 0.40938 11.6875 0.687472 11.6875H3.43745V21.3125C3.43745 21.692 3.74545 22 4.12494 22H8.24991C8.62941 22 8.9374 21.692 8.9374 21.3125V16.5H13.0624V21.3125C13.0624 21.692 13.3704 22 13.7499 22ZM8.24991 15.125C7.87041 15.125 7.56241 15.433 7.56241 15.8125V20.625H4.81244V11C4.81244 10.6205 4.50444 10.3125 4.12494 10.3125H2.34708L10.9999 1.65989L19.6527 10.3125H17.8748C17.4953 10.3125 17.1873 10.6205 17.1873 11V20.625H14.4374V15.8125C14.4374 15.433 14.1294 15.125 13.7499 15.125H8.24991Z" fill="white"/>
<rect x="8.75" y="6.75" width="4.5" height="4.5" rx="2.25" stroke="white" stroke-width="1.5"/>
</svg>
