<svg width="120" height="40" viewBox="0 0 120 40" fill="none" xmlns="http://www.w3.org/2000/svg">
<path d="M51.1875 22.3828H52.6875C52.6094 23.1016 52.4036 23.7448 52.0703 24.3125C51.737 24.8802 51.2656 25.3307 50.6562 25.6641C50.0469 25.9922 49.2865 26.1562 48.375 26.1562C47.7083 26.1562 47.1016 26.0312 46.5547 25.7812C46.013 25.5312 45.5469 25.1771 45.1562 24.7188C44.7656 24.2552 44.4635 23.7005 44.25 23.0547C44.0417 22.4036 43.9375 21.6797 43.9375 20.8828V19.75C43.9375 18.9531 44.0417 18.2318 44.25 17.5859C44.4635 16.9349 44.7682 16.3776 45.1641 15.9141C45.5651 15.4505 46.0469 15.0938 46.6094 14.8438C47.1719 14.5938 47.8047 14.4688 48.5078 14.4688C49.3672 14.4688 50.0938 14.6302 50.6875 14.9531C51.2812 15.276 51.7422 15.724 52.0703 16.2969C52.4036 16.8646 52.6094 17.5234 52.6875 18.2734H51.1875C51.1146 17.7422 50.9792 17.2865 50.7812 16.9062C50.5833 16.5208 50.3021 16.224 49.9375 16.0156C49.5729 15.8073 49.0964 15.7031 48.5078 15.7031C48.0026 15.7031 47.5573 15.7995 47.1719 15.9922C46.7917 16.1849 46.4714 16.4583 46.2109 16.8125C45.9557 17.1667 45.763 17.5911 45.6328 18.0859C45.5026 18.5807 45.4375 19.1302 45.4375 19.7344V20.8828C45.4375 21.4401 45.4948 21.9635 45.6094 22.4531C45.7292 22.9427 45.9089 23.3724 46.1484 23.7422C46.388 24.112 46.6927 24.4036 47.0625 24.6172C47.4323 24.8255 47.8698 24.9297 48.375 24.9297C49.0156 24.9297 49.526 24.8281 49.9062 24.625C50.2865 24.4219 50.5729 24.1302 50.7656 23.75C50.9635 23.3698 51.1042 22.9141 51.1875 22.3828ZM53.8206 21.8672V21.6875C53.8206 21.0781 53.9092 20.513 54.0863 19.9922C54.2633 19.4661 54.5185 19.0104 54.8519 18.625C55.1852 18.2344 55.5889 17.9323 56.0628 17.7188C56.5368 17.5 57.068 17.3906 57.6566 17.3906C58.2503 17.3906 58.7842 17.5 59.2581 17.7188C59.7373 17.9323 60.1435 18.2344 60.4769 18.625C60.8154 19.0104 61.0732 19.4661 61.2503 19.9922C61.4274 20.513 61.5159 21.0781 61.5159 21.6875V21.8672C61.5159 22.4766 61.4274 23.0417 61.2503 23.5625C61.0732 24.0833 60.8154 24.5391 60.4769 24.9297C60.1435 25.3151 59.7399 25.6172 59.2659 25.8359C58.7972 26.0495 58.2659 26.1562 57.6722 26.1562C57.0784 26.1562 56.5446 26.0495 56.0706 25.8359C55.5967 25.6172 55.1904 25.3151 54.8519 24.9297C54.5185 24.5391 54.2633 24.0833 54.0863 23.5625C53.9092 23.0417 53.8206 22.4766 53.8206 21.8672ZM55.2659 21.6875V21.8672C55.2659 22.2891 55.3154 22.6875 55.4144 23.0625C55.5133 23.4323 55.6618 23.7604 55.8597 24.0469C56.0628 24.3333 56.3154 24.5599 56.6175 24.7266C56.9196 24.888 57.2711 24.9688 57.6722 24.9688C58.068 24.9688 58.4144 24.888 58.7113 24.7266C59.0133 24.5599 59.2633 24.3333 59.4613 24.0469C59.6592 23.7604 59.8076 23.4323 59.9066 23.0625C60.0107 22.6875 60.0628 22.2891 60.0628 21.8672V21.6875C60.0628 21.2708 60.0107 20.8776 59.9066 20.5078C59.8076 20.1328 59.6566 19.8021 59.4534 19.5156C59.2555 19.224 59.0055 18.9948 58.7034 18.8281C58.4066 18.6615 58.0576 18.5781 57.6566 18.5781C57.2607 18.5781 56.9118 18.6615 56.6097 18.8281C56.3128 18.9948 56.0628 19.224 55.8597 19.5156C55.6618 19.8021 55.5133 20.1328 55.4144 20.5078C55.3154 20.8776 55.2659 21.2708 55.2659 21.6875ZM64.4538 19.3516V26H63.0084V17.5469H64.3756L64.4538 19.3516ZM64.11 21.4531L63.5084 21.4297C63.5136 20.8516 63.5996 20.3177 63.7663 19.8281C63.9329 19.3333 64.1673 18.9036 64.4694 18.5391C64.7715 18.1745 65.1308 17.8932 65.5475 17.6953C65.9694 17.4922 66.4355 17.3906 66.9459 17.3906C67.3626 17.3906 67.7376 17.4479 68.0709 17.5625C68.4043 17.6719 68.6881 17.849 68.9225 18.0938C69.1621 18.3385 69.3444 18.6562 69.4694 19.0469C69.5944 19.4323 69.6569 19.9036 69.6569 20.4609V26H68.2038V20.4453C68.2038 20.0026 68.1386 19.6484 68.0084 19.3828C67.8782 19.112 67.6881 18.9167 67.4381 18.7969C67.1881 18.6719 66.8808 18.6094 66.5163 18.6094C66.1569 18.6094 65.8288 18.6849 65.5319 18.8359C65.2402 18.987 64.9876 19.1953 64.7741 19.4609C64.5657 19.7266 64.4017 20.0312 64.2819 20.375C64.1673 20.7135 64.11 21.0729 64.11 21.4531ZM75.0713 17.5469V18.6562H70.5009V17.5469H75.0713ZM72.0478 15.4922H73.4931V23.9062C73.4931 24.1927 73.5374 24.4089 73.6259 24.5547C73.7145 24.7005 73.8291 24.7969 73.9697 24.8438C74.1103 24.8906 74.2614 24.9141 74.4228 24.9141C74.5426 24.9141 74.6676 24.9036 74.7978 24.8828C74.9332 24.8568 75.0348 24.8359 75.1025 24.8203L75.1103 26C74.9957 26.0365 74.8447 26.0703 74.6572 26.1016C74.4749 26.138 74.2535 26.1562 73.9931 26.1562C73.639 26.1562 73.3134 26.0859 73.0166 25.9453C72.7197 25.8047 72.4827 25.5703 72.3056 25.2422C72.1338 24.9089 72.0478 24.4609 72.0478 23.8984V15.4922ZM81.4309 24.5547V20.2031C81.4309 19.8698 81.3632 19.5807 81.2278 19.3359C81.0976 19.0859 80.8997 18.8932 80.6341 18.7578C80.3684 18.6224 80.0403 18.5547 79.6497 18.5547C79.2851 18.5547 78.9648 18.6172 78.6888 18.7422C78.4179 18.8672 78.2044 19.0312 78.0481 19.2344C77.8971 19.4375 77.8216 19.6562 77.8216 19.8906H76.3763C76.3763 19.5885 76.4544 19.2891 76.6106 18.9922C76.7669 18.6953 76.9908 18.4271 77.2825 18.1875C77.5794 17.9427 77.9335 17.75 78.345 17.6094C78.7617 17.4635 79.2252 17.3906 79.7356 17.3906C80.3502 17.3906 80.8919 17.4948 81.3606 17.7031C81.8346 17.9115 82.2044 18.2266 82.47 18.6484C82.7408 19.0651 82.8763 19.5885 82.8763 20.2188V24.1562C82.8763 24.4375 82.8997 24.737 82.9466 25.0547C82.9986 25.3724 83.0742 25.6458 83.1731 25.875V26H81.6653C81.5924 25.8333 81.5351 25.612 81.4934 25.3359C81.4518 25.0547 81.4309 24.7943 81.4309 24.5547ZM81.6809 20.875L81.6966 21.8906H80.2356C79.8242 21.8906 79.457 21.9245 79.1341 21.9922C78.8111 22.0547 78.5403 22.151 78.3216 22.2812C78.1028 22.4115 77.9361 22.5755 77.8216 22.7734C77.707 22.9661 77.6497 23.1927 77.6497 23.4531C77.6497 23.7188 77.7096 23.9609 77.8294 24.1797C77.9492 24.3984 78.1289 24.5729 78.3684 24.7031C78.6132 24.8281 78.9127 24.8906 79.2669 24.8906C79.7096 24.8906 80.1002 24.7969 80.4388 24.6094C80.7773 24.4219 81.0455 24.1927 81.2434 23.9219C81.4466 23.651 81.5559 23.388 81.5716 23.1328L82.1888 23.8281C82.1523 24.0469 82.0533 24.2891 81.8919 24.5547C81.7304 24.8203 81.5143 25.0755 81.2434 25.3203C80.9778 25.5599 80.6601 25.7604 80.2903 25.9219C79.9257 26.0781 79.5143 26.1562 79.0559 26.1562C78.483 26.1562 77.9804 26.0443 77.5481 25.8203C77.121 25.5964 76.7877 25.2969 76.5481 24.9219C76.3138 24.5417 76.1966 24.1172 76.1966 23.6484C76.1966 23.1953 76.2851 22.7969 76.4622 22.4531C76.6393 22.1042 76.8945 21.8151 77.2278 21.5859C77.5611 21.3516 77.9622 21.1745 78.4309 21.0547C78.8997 20.9349 79.4231 20.875 80.0013 20.875H81.6809ZM88.2125 24.9688C88.5563 24.9688 88.874 24.8984 89.1656 24.7578C89.4573 24.6172 89.6969 24.4245 89.8844 24.1797C90.0719 23.9297 90.1786 23.6458 90.2047 23.3281H91.5797C91.5536 23.8281 91.3844 24.2943 91.0719 24.7266C90.7646 25.1536 90.3609 25.5 89.8609 25.7656C89.3609 26.026 88.8115 26.1562 88.2125 26.1562C87.5771 26.1562 87.0224 26.0443 86.5484 25.8203C86.0797 25.5964 85.6891 25.2891 85.3766 24.8984C85.0693 24.5078 84.8375 24.0599 84.6813 23.5547C84.5302 23.0443 84.4547 22.5052 84.4547 21.9375V21.6094C84.4547 21.0417 84.5302 20.5052 84.6813 20C84.8375 19.4896 85.0693 19.0391 85.3766 18.6484C85.6891 18.2578 86.0797 17.9505 86.5484 17.7266C87.0224 17.5026 87.5771 17.3906 88.2125 17.3906C88.874 17.3906 89.4521 17.526 89.9469 17.7969C90.4417 18.0625 90.8297 18.4271 91.1109 18.8906C91.3974 19.349 91.5536 19.8698 91.5797 20.4531H90.2047C90.1786 20.1042 90.0797 19.7891 89.9078 19.5078C89.7411 19.2266 89.512 19.0026 89.2203 18.8359C88.9339 18.6641 88.5979 18.5781 88.2125 18.5781C87.7698 18.5781 87.3974 18.6667 87.0953 18.8438C86.7984 19.0156 86.5615 19.25 86.3844 19.5469C86.2125 19.8385 86.0875 20.1641 86.0094 20.5234C85.9365 20.8776 85.9 21.2396 85.9 21.6094V21.9375C85.9 22.3073 85.9365 22.6719 86.0094 23.0312C86.0823 23.3906 86.2047 23.7161 86.3766 24.0078C86.5536 24.2995 86.7906 24.5339 87.0875 24.7109C87.3896 24.8828 87.7646 24.9688 88.2125 24.9688ZM96.4238 17.5469V18.6562H91.8534V17.5469H96.4238ZM93.4003 15.4922H94.8456V23.9062C94.8456 24.1927 94.8899 24.4089 94.9784 24.5547C95.067 24.7005 95.1816 24.7969 95.3222 24.8438C95.4628 24.8906 95.6139 24.9141 95.7753 24.9141C95.8951 24.9141 96.0201 24.9036 96.1503 24.8828C96.2857 24.8568 96.3873 24.8359 96.455 24.8203L96.4628 26C96.3482 26.0365 96.1972 26.0703 96.0097 26.1016C95.8274 26.138 95.606 26.1562 95.3456 26.1562C94.9915 26.1562 94.6659 26.0859 94.3691 25.9453C94.0722 25.8047 93.8352 25.5703 93.6581 25.2422C93.4863 24.9089 93.4003 24.4609 93.4003 23.8984V15.4922ZM102.721 23.7578C102.721 23.5495 102.674 23.3568 102.58 23.1797C102.492 22.9974 102.307 22.8333 102.026 22.6875C101.75 22.5365 101.333 22.4062 100.776 22.2969C100.307 22.1979 99.8824 22.0807 99.5022 21.9453C99.1272 21.8099 98.8069 21.6458 98.5412 21.4531C98.2808 21.2604 98.0803 21.0339 97.9397 20.7734C97.7991 20.513 97.7287 20.2083 97.7287 19.8594C97.7287 19.526 97.8017 19.2109 97.9475 18.9141C98.0985 18.6172 98.3095 18.3542 98.5803 18.125C98.8564 17.8958 99.1871 17.7161 99.5725 17.5859C99.9579 17.4557 100.388 17.3906 100.862 17.3906C101.539 17.3906 102.117 17.5104 102.596 17.75C103.075 17.9896 103.442 18.3099 103.697 18.7109C103.953 19.1068 104.08 19.5469 104.08 20.0312H102.635C102.635 19.7969 102.565 19.5703 102.424 19.3516C102.289 19.1276 102.088 18.9427 101.822 18.7969C101.562 18.651 101.242 18.5781 100.862 18.5781C100.461 18.5781 100.135 18.6406 99.885 18.7656C99.6402 18.8854 99.4605 19.0391 99.3459 19.2266C99.2366 19.4141 99.1819 19.612 99.1819 19.8203C99.1819 19.9766 99.2079 20.1172 99.26 20.2422C99.3173 20.362 99.4162 20.474 99.5569 20.5781C99.6975 20.6771 99.8954 20.7708 100.151 20.8594C100.406 20.9479 100.731 21.0365 101.127 21.125C101.82 21.2812 102.39 21.4688 102.838 21.6875C103.286 21.9062 103.619 22.1745 103.838 22.4922C104.057 22.8099 104.166 23.1953 104.166 23.6484C104.166 24.0182 104.088 24.3568 103.932 24.6641C103.781 24.9714 103.559 25.237 103.268 25.4609C102.981 25.6797 102.638 25.8516 102.237 25.9766C101.841 26.0964 101.395 26.1562 100.901 26.1562C100.156 26.1562 99.5256 26.0234 99.01 25.7578C98.4944 25.4922 98.1037 25.1484 97.8381 24.7266C97.5725 24.3047 97.4397 23.8594 97.4397 23.3906H98.8928C98.9136 23.7865 99.0282 24.1016 99.2366 24.3359C99.4449 24.5651 99.7001 24.7292 100.002 24.8281C100.304 24.9219 100.604 24.9688 100.901 24.9688C101.296 24.9688 101.627 24.9167 101.893 24.8125C102.164 24.7083 102.369 24.5651 102.51 24.3828C102.651 24.2005 102.721 23.9922 102.721 23.7578Z" fill="white"/>
<path d="M24.1656 9.00513C24.1325 9.00192 24.0992 9 24.0651 9L23.9967 9.00096L23.9349 9C23.9012 9 23.8678 9.0016 23.8351 9.00513C18.9557 9.12565 15 13.0888 15 17.8787C15 24.0346 21.9925 29.7182 23.3939 30.7949C23.5716 30.9317 23.786 31 24 31C24.214 31 24.4281 30.9317 24.6061 30.7949C26.0078 29.7182 33 24.0346 33 17.8787C33 13.0888 29.0452 9.12565 24.1656 9.00513ZM24 28.796C22.1172 27.2359 16.9636 22.539 16.9636 17.8787C16.9636 14.1049 20.0979 10.9861 23.9506 10.9261C23.9663 10.9261 23.9817 10.9255 23.9974 10.9245H24.0003C24.001 10.9245 24.0023 10.9245 24.0036 10.9245C24.019 10.9255 24.0344 10.9261 24.0501 10.9261C27.9024 10.9861 31.037 14.1049 31.037 17.8787C31.0364 22.539 25.8828 27.2359 24 28.796Z" fill="white"/>
<path d="M24.0655 13.454C21.7733 13.454 19.915 15.274 19.915 17.5194C19.915 19.7641 21.7733 21.5842 24.0655 21.5842C26.3577 21.5842 28.216 19.7641 28.216 17.5194C28.2157 15.2737 26.3577 13.454 24.0655 13.454ZM24.0655 19.6606C22.8598 19.6606 21.8787 18.7 21.8787 17.5191C21.8787 16.3379 22.8598 15.3769 24.0655 15.3769C25.2715 15.3769 26.2523 16.3379 26.2523 17.5191C26.252 18.7 25.2712 19.6606 24.0655 19.6606Z" fill="white"/>
</svg>
