<svg width="122" height="40" viewBox="0 0 122 40" fill="none" xmlns="http://www.w3.org/2000/svg">
<path d="M54.3828 23.125C54.3828 22.8594 54.3411 22.625 54.2578 22.4219C54.1797 22.2135 54.0391 22.026 53.8359 21.8594C53.638 21.6927 53.362 21.5339 53.0078 21.3828C52.6589 21.2318 52.2161 21.0781 51.6797 20.9219C51.1172 20.7552 50.6094 20.5703 50.1562 20.3672C49.7031 20.1589 49.3151 19.9219 48.9922 19.6562C48.6693 19.3906 48.4219 19.0859 48.25 18.7422C48.0781 18.3984 47.9922 18.0052 47.9922 17.5625C47.9922 17.1198 48.0833 16.7109 48.2656 16.3359C48.4479 15.9609 48.7083 15.6354 49.0469 15.3594C49.3906 15.0781 49.7995 14.8594 50.2734 14.7031C50.7474 14.5469 51.276 14.4688 51.8594 14.4688C52.7135 14.4688 53.4375 14.6328 54.0312 14.9609C54.6302 15.2839 55.0859 15.7083 55.3984 16.2344C55.7109 16.7552 55.8672 17.3125 55.8672 17.9062H54.3672C54.3672 17.4792 54.276 17.1016 54.0938 16.7734C53.9115 16.4401 53.6354 16.1797 53.2656 15.9922C52.8958 15.7995 52.4271 15.7031 51.8594 15.7031C51.3229 15.7031 50.8802 15.7839 50.5312 15.9453C50.1823 16.1068 49.9219 16.3255 49.75 16.6016C49.5833 16.8776 49.5 17.1927 49.5 17.5469C49.5 17.7865 49.5495 18.0052 49.6484 18.2031C49.7526 18.3958 49.9115 18.5755 50.125 18.7422C50.3438 18.9089 50.6198 19.0625 50.9531 19.2031C51.2917 19.3438 51.6953 19.4792 52.1641 19.6094C52.8099 19.7917 53.3672 19.9948 53.8359 20.2188C54.3047 20.4427 54.6901 20.6953 54.9922 20.9766C55.2995 21.2526 55.526 21.5677 55.6719 21.9219C55.8229 22.2708 55.8984 22.6667 55.8984 23.1094C55.8984 23.5729 55.8047 23.9922 55.6172 24.3672C55.4297 24.7422 55.1615 25.0625 54.8125 25.3281C54.4635 25.5938 54.0443 25.7995 53.5547 25.9453C53.0703 26.0859 52.5286 26.1562 51.9297 26.1562C51.4036 26.1562 50.8854 26.0833 50.375 25.9375C49.8698 25.7917 49.4089 25.5729 48.9922 25.2812C48.5807 24.9896 48.25 24.6302 48 24.2031C47.7552 23.7708 47.6328 23.2708 47.6328 22.7031H49.1328C49.1328 23.0938 49.2083 23.4297 49.3594 23.7109C49.5104 23.987 49.7161 24.2161 49.9766 24.3984C50.2422 24.5807 50.5417 24.7161 50.875 24.8047C51.2135 24.888 51.5651 24.9297 51.9297 24.9297C52.4557 24.9297 52.901 24.8568 53.2656 24.7109C53.6302 24.5651 53.9062 24.3568 54.0938 24.0859C54.2865 23.8151 54.3828 23.4948 54.3828 23.125ZM62.2659 24.5547V20.2031C62.2659 19.8698 62.1982 19.5807 62.0628 19.3359C61.9326 19.0859 61.7347 18.8932 61.4691 18.7578C61.2034 18.6224 60.8753 18.5547 60.4847 18.5547C60.1201 18.5547 59.7998 18.6172 59.5238 18.7422C59.2529 18.8672 59.0394 19.0312 58.8831 19.2344C58.7321 19.4375 58.6566 19.6562 58.6566 19.8906H57.2113C57.2113 19.5885 57.2894 19.2891 57.4456 18.9922C57.6019 18.6953 57.8258 18.4271 58.1175 18.1875C58.4144 17.9427 58.7685 17.75 59.18 17.6094C59.5967 17.4635 60.0602 17.3906 60.5706 17.3906C61.1852 17.3906 61.7269 17.4948 62.1956 17.7031C62.6696 17.9115 63.0394 18.2266 63.305 18.6484C63.5758 19.0651 63.7113 19.5885 63.7113 20.2188V24.1562C63.7113 24.4375 63.7347 24.737 63.7816 25.0547C63.8336 25.3724 63.9092 25.6458 64.0081 25.875V26H62.5003C62.4274 25.8333 62.3701 25.612 62.3284 25.3359C62.2868 25.0547 62.2659 24.7943 62.2659 24.5547ZM62.5159 20.875L62.5316 21.8906H61.0706C60.6592 21.8906 60.292 21.9245 59.9691 21.9922C59.6461 22.0547 59.3753 22.151 59.1566 22.2812C58.9378 22.4115 58.7711 22.5755 58.6566 22.7734C58.542 22.9661 58.4847 23.1927 58.4847 23.4531C58.4847 23.7188 58.5446 23.9609 58.6644 24.1797C58.7842 24.3984 58.9639 24.5729 59.2034 24.7031C59.4482 24.8281 59.7477 24.8906 60.1019 24.8906C60.5446 24.8906 60.9352 24.7969 61.2738 24.6094C61.6123 24.4219 61.8805 24.1927 62.0784 23.9219C62.2816 23.651 62.3909 23.388 62.4066 23.1328L63.0238 23.8281C62.9873 24.0469 62.8883 24.2891 62.7269 24.5547C62.5654 24.8203 62.3493 25.0755 62.0784 25.3203C61.8128 25.5599 61.4951 25.7604 61.1253 25.9219C60.7607 26.0781 60.3493 26.1562 59.8909 26.1562C59.318 26.1562 58.8154 26.0443 58.3831 25.8203C57.956 25.5964 57.6227 25.2969 57.3831 24.9219C57.1488 24.5417 57.0316 24.1172 57.0316 23.6484C57.0316 23.1953 57.1201 22.7969 57.2972 22.4531C57.4743 22.1042 57.7295 21.8151 58.0628 21.5859C58.3961 21.3516 58.7972 21.1745 59.2659 21.0547C59.7347 20.9349 60.2581 20.875 60.8363 20.875H62.5159ZM67.11 19.3516V26H65.6647V17.5469H67.0319L67.11 19.3516ZM66.7663 21.4531L66.1647 21.4297C66.1699 20.8516 66.2558 20.3177 66.4225 19.8281C66.5892 19.3333 66.8235 18.9036 67.1256 18.5391C67.4277 18.1745 67.7871 17.8932 68.2038 17.6953C68.6256 17.4922 69.0918 17.3906 69.6022 17.3906C70.0189 17.3906 70.3939 17.4479 70.7272 17.5625C71.0605 17.6719 71.3444 17.849 71.5788 18.0938C71.8183 18.3385 72.0006 18.6562 72.1256 19.0469C72.2506 19.4323 72.3131 19.9036 72.3131 20.4609V26H70.86V20.4453C70.86 20.0026 70.7949 19.6484 70.6647 19.3828C70.5345 19.112 70.3444 18.9167 70.0944 18.7969C69.8444 18.6719 69.5371 18.6094 69.1725 18.6094C68.8131 18.6094 68.485 18.6849 68.1881 18.8359C67.8965 18.987 67.6439 19.1953 67.4303 19.4609C67.222 19.7266 67.0579 20.0312 66.9381 20.375C66.8235 20.7135 66.7663 21.0729 66.7663 21.4531ZM79.5166 24.3594V14H80.9697V26H79.6416L79.5166 24.3594ZM73.8291 21.8672V21.7031C73.8291 21.0573 73.9072 20.4714 74.0634 19.9453C74.2249 19.4141 74.4515 18.9583 74.7431 18.5781C75.04 18.1979 75.3916 17.9062 75.7978 17.7031C76.2093 17.4948 76.6676 17.3906 77.1728 17.3906C77.7041 17.3906 78.1676 17.4844 78.5634 17.6719C78.9645 17.8542 79.303 18.1224 79.5791 18.4766C79.8603 18.8255 80.0817 19.2474 80.2431 19.7422C80.4046 20.237 80.5166 20.7969 80.5791 21.4219V22.1406C80.5218 22.7604 80.4098 23.3177 80.2431 23.8125C80.0817 24.3073 79.8603 24.7292 79.5791 25.0781C79.303 25.4271 78.9645 25.6953 78.5634 25.8828C78.1624 26.0651 77.6936 26.1562 77.1572 26.1562C76.6624 26.1562 76.2093 26.0495 75.7978 25.8359C75.3916 25.6224 75.04 25.3229 74.7431 24.9375C74.4515 24.5521 74.2249 24.099 74.0634 23.5781C73.9072 23.0521 73.8291 22.4818 73.8291 21.8672ZM75.2822 21.7031V21.8672C75.2822 22.2891 75.3239 22.6849 75.4072 23.0547C75.4957 23.4245 75.6311 23.75 75.8134 24.0312C75.9957 24.3125 76.2275 24.5339 76.5088 24.6953C76.79 24.8516 77.1259 24.9297 77.5166 24.9297C77.9957 24.9297 78.389 24.8281 78.6963 24.625C79.0088 24.4219 79.2588 24.1536 79.4463 23.8203C79.6338 23.487 79.7796 23.125 79.8838 22.7344V20.8516C79.8213 20.5651 79.7301 20.2891 79.6103 20.0234C79.4957 19.7526 79.3447 19.513 79.1572 19.3047C78.9749 19.0911 78.7483 18.9219 78.4775 18.7969C78.2119 18.6719 77.8968 18.6094 77.5322 18.6094C77.1364 18.6094 76.7952 18.6927 76.5088 18.8594C76.2275 19.0208 75.9957 19.2448 75.8134 19.5312C75.6311 19.8125 75.4957 20.1406 75.4072 20.5156C75.3239 20.8854 75.2822 21.2812 75.2822 21.7031ZM82.8919 14H84.345V24.3594L84.22 26H82.8919V14ZM90.0559 21.7031V21.8672C90.0559 22.4818 89.983 23.0521 89.8372 23.5781C89.6914 24.099 89.4778 24.5521 89.1966 24.9375C88.9153 25.3229 88.5716 25.6224 88.1653 25.8359C87.7591 26.0495 87.2929 26.1562 86.7669 26.1562C86.2304 26.1562 85.7591 26.0651 85.3528 25.8828C84.9518 25.6953 84.6132 25.4271 84.3372 25.0781C84.0611 24.7292 83.8398 24.3073 83.6731 23.8125C83.5117 23.3177 83.3997 22.7604 83.3372 22.1406V21.4219C83.3997 20.7969 83.5117 20.237 83.6731 19.7422C83.8398 19.2474 84.0611 18.8255 84.3372 18.4766C84.6132 18.1224 84.9518 17.8542 85.3528 17.6719C85.7539 17.4844 86.22 17.3906 86.7513 17.3906C87.2825 17.3906 87.7539 17.4948 88.1653 17.7031C88.5768 17.9062 88.9205 18.1979 89.1966 18.5781C89.4778 18.9583 89.6914 19.4141 89.8372 19.9453C89.983 20.4714 90.0559 21.0573 90.0559 21.7031ZM88.6028 21.8672V21.7031C88.6028 21.2812 88.5638 20.8854 88.4856 20.5156C88.4075 20.1406 88.2825 19.8125 88.1106 19.5312C87.9388 19.2448 87.7122 19.0208 87.4309 18.8594C87.1497 18.6927 86.8033 18.6094 86.3919 18.6094C86.0273 18.6094 85.7096 18.6719 85.4388 18.7969C85.1731 18.9219 84.9466 19.0911 84.7591 19.3047C84.5716 19.513 84.4179 19.7526 84.2981 20.0234C84.1835 20.2891 84.0976 20.5651 84.0403 20.8516V22.7344C84.1236 23.099 84.2591 23.4505 84.4466 23.7891C84.6393 24.1224 84.8945 24.3958 85.2122 24.6094C85.5351 24.8229 85.9335 24.9297 86.4075 24.9297C86.7981 24.9297 87.1315 24.8516 87.4075 24.6953C87.6888 24.5339 87.9153 24.3125 88.0872 24.0312C88.2643 23.75 88.3945 23.4245 88.4778 23.0547C88.5611 22.6849 88.6028 22.2891 88.6028 21.8672ZM91.1813 21.8672V21.6875C91.1813 21.0781 91.2698 20.513 91.4469 19.9922C91.624 19.4661 91.8792 19.0104 92.2125 18.625C92.5458 18.2344 92.9495 17.9323 93.4234 17.7188C93.8974 17.5 94.4286 17.3906 95.0172 17.3906C95.6109 17.3906 96.1448 17.5 96.6188 17.7188C97.0979 17.9323 97.5042 18.2344 97.8375 18.625C98.176 19.0104 98.4339 19.4661 98.6109 19.9922C98.788 20.513 98.8766 21.0781 98.8766 21.6875V21.8672C98.8766 22.4766 98.788 23.0417 98.6109 23.5625C98.4339 24.0833 98.176 24.5391 97.8375 24.9297C97.5042 25.3151 97.1005 25.6172 96.6266 25.8359C96.1578 26.0495 95.6266 26.1562 95.0328 26.1562C94.4391 26.1562 93.9052 26.0495 93.4313 25.8359C92.9573 25.6172 92.551 25.3151 92.2125 24.9297C91.8792 24.5391 91.624 24.0833 91.4469 23.5625C91.2698 23.0417 91.1813 22.4766 91.1813 21.8672ZM92.6266 21.6875V21.8672C92.6266 22.2891 92.676 22.6875 92.775 23.0625C92.874 23.4323 93.0224 23.7604 93.2203 24.0469C93.4234 24.3333 93.676 24.5599 93.9781 24.7266C94.2802 24.888 94.6318 24.9688 95.0328 24.9688C95.4286 24.9688 95.775 24.888 96.0719 24.7266C96.374 24.5599 96.624 24.3333 96.8219 24.0469C97.0198 23.7604 97.1682 23.4323 97.2672 23.0625C97.3714 22.6875 97.4234 22.2891 97.4234 21.8672V21.6875C97.4234 21.2708 97.3714 20.8776 97.2672 20.5078C97.1682 20.1328 97.0172 19.8021 96.8141 19.5156C96.6161 19.224 96.3661 18.9948 96.0641 18.8281C95.7672 18.6615 95.4182 18.5781 95.0172 18.5781C94.6214 18.5781 94.2724 18.6615 93.9703 18.8281C93.6734 18.9948 93.4234 19.224 93.2203 19.5156C93.0224 19.8021 92.874 20.1328 92.775 20.5078C92.676 20.8776 92.6266 21.2708 92.6266 21.6875ZM101.174 17.5469L103.025 20.625L104.9 17.5469H106.596L103.83 21.7188L106.682 26H105.01L103.057 22.8281L101.103 26H99.4238L102.268 21.7188L99.5097 17.5469H101.174Z" fill="white"/>
<path d="M33.8571 23.9287H32.2857V27.8573H33.8571V23.9287Z" fill="white"/>
<path d="M30.7145 20H29.1431V27.8571H30.7145V20Z" fill="white"/>
<path d="M22.0716 27.8571C21.0301 27.8559 20.0315 27.4416 19.2951 26.7051C18.5586 25.9687 18.1443 24.9701 18.1431 23.9286H19.7145C19.7145 24.3948 19.8527 24.8505 20.1117 25.2381C20.3707 25.6258 20.7389 25.9279 21.1696 26.1063C21.6003 26.2847 22.0742 26.3314 22.5315 26.2404C22.9887 26.1495 23.4087 25.925 23.7384 25.5953C24.068 25.2657 24.2925 24.8457 24.3835 24.3884C24.4744 23.9312 24.4277 23.4572 24.2493 23.0265C24.0709 22.5958 23.7688 22.2277 23.3812 21.9687C22.9936 21.7097 22.5378 21.5714 22.0716 21.5714V20C23.1135 20 24.1128 20.4139 24.8495 21.1507C25.5863 21.8874 26.0002 22.8866 26.0002 23.9286C26.0002 24.9705 25.5863 25.9697 24.8495 26.7065C24.1128 27.4432 23.1135 27.8571 22.0716 27.8571Z" fill="white"/>
<path d="M35.4286 9H16.5714C16.1548 9.00042 15.7553 9.16611 15.4607 9.46072C15.1661 9.75533 15.0004 10.1548 15 10.5714V29.4286C15.0005 29.8452 15.1662 30.2446 15.4608 30.5392C15.7554 30.8338 16.1548 30.9995 16.5714 31H35.4286C35.8452 30.9994 36.2445 30.8337 36.5391 30.5391C36.8337 30.2445 36.9994 29.8452 37 29.4286V10.5714C36.9995 10.1548 36.8338 9.75539 36.5392 9.46079C36.2446 9.16619 35.8452 9.00048 35.4286 9ZM35.4286 16.0714H24.4286V10.5714H35.4286V16.0714ZM22.8571 10.5714V16.0714H16.5714V10.5714H22.8571ZM16.5714 29.4286V17.6429H35.4291L35.4301 29.4286H16.5714Z" fill="white"/>
</svg>
