<svg width="140" height="40" viewBox="0 0 140 40" fill="none" xmlns="http://www.w3.org/2000/svg">
<path d="M52.5312 15.6328L48.7656 26H47.2266L51.5625 14.625H52.5547L52.5312 15.6328ZM55.6875 26L51.9141 15.6328L51.8906 14.625H52.8828L57.2344 26H55.6875ZM55.4922 21.7891V23.0234H49.1016V21.7891H55.4922ZM59.7894 14V26H58.3363V14H59.7894ZM63.36 14V26H61.9069V14H63.36ZM76.095 22.3828H77.595C77.5169 23.1016 77.3111 23.7448 76.9778 24.3125C76.6445 24.8802 76.1731 25.3307 75.5637 25.6641C74.9544 25.9922 74.194 26.1562 73.2825 26.1562C72.6158 26.1562 72.0091 26.0312 71.4622 25.7812C70.9205 25.5312 70.4544 25.1771 70.0637 24.7188C69.6731 24.2552 69.371 23.7005 69.1575 23.0547C68.9492 22.4036 68.845 21.6797 68.845 20.8828V19.75C68.845 18.9531 68.9492 18.2318 69.1575 17.5859C69.371 16.9349 69.6757 16.3776 70.0716 15.9141C70.4726 15.4505 70.9544 15.0938 71.5169 14.8438C72.0794 14.5938 72.7122 14.4688 73.4153 14.4688C74.2747 14.4688 75.0012 14.6302 75.595 14.9531C76.1887 15.276 76.6497 15.724 76.9778 16.2969C77.3111 16.8646 77.5169 17.5234 77.595 18.2734H76.095C76.0221 17.7422 75.8867 17.2865 75.6887 16.9062C75.4908 16.5208 75.2096 16.224 74.845 16.0156C74.4804 15.8073 74.0039 15.7031 73.4153 15.7031C72.9101 15.7031 72.4648 15.7995 72.0794 15.9922C71.6992 16.1849 71.3789 16.4583 71.1184 16.8125C70.8632 17.1667 70.6705 17.5911 70.5403 18.0859C70.4101 18.5807 70.345 19.1302 70.345 19.7344V20.8828C70.345 21.4401 70.4023 21.9635 70.5169 22.4531C70.6367 22.9427 70.8164 23.3724 71.0559 23.7422C71.2955 24.112 71.6002 24.4036 71.97 24.6172C72.3398 24.8255 72.7773 24.9297 73.2825 24.9297C73.9231 24.9297 74.4335 24.8281 74.8137 24.625C75.194 24.4219 75.4804 24.1302 75.6731 23.75C75.871 23.3698 76.0117 22.9141 76.095 22.3828ZM78.7281 21.8672V21.6875C78.7281 21.0781 78.8167 20.513 78.9937 19.9922C79.1708 19.4661 79.426 19.0104 79.7594 18.625C80.0927 18.2344 80.4964 17.9323 80.9703 17.7188C81.4443 17.5 81.9755 17.3906 82.5641 17.3906C83.1578 17.3906 83.6917 17.5 84.1656 17.7188C84.6448 17.9323 85.051 18.2344 85.3844 18.625C85.7229 19.0104 85.9807 19.4661 86.1578 19.9922C86.3349 20.513 86.4234 21.0781 86.4234 21.6875V21.8672C86.4234 22.4766 86.3349 23.0417 86.1578 23.5625C85.9807 24.0833 85.7229 24.5391 85.3844 24.9297C85.051 25.3151 84.6474 25.6172 84.1734 25.8359C83.7047 26.0495 83.1734 26.1562 82.5797 26.1562C81.9859 26.1562 81.4521 26.0495 80.9781 25.8359C80.5042 25.6172 80.0979 25.3151 79.7594 24.9297C79.426 24.5391 79.1708 24.0833 78.9937 23.5625C78.8167 23.0417 78.7281 22.4766 78.7281 21.8672ZM80.1734 21.6875V21.8672C80.1734 22.2891 80.2229 22.6875 80.3219 23.0625C80.4208 23.4323 80.5693 23.7604 80.7672 24.0469C80.9703 24.3333 81.2229 24.5599 81.525 24.7266C81.8271 24.888 82.1786 24.9688 82.5797 24.9688C82.9755 24.9688 83.3219 24.888 83.6187 24.7266C83.9208 24.5599 84.1708 24.3333 84.3687 24.0469C84.5667 23.7604 84.7151 23.4323 84.8141 23.0625C84.9182 22.6875 84.9703 22.2891 84.9703 21.8672V21.6875C84.9703 21.2708 84.9182 20.8776 84.8141 20.5078C84.7151 20.1328 84.5641 19.8021 84.3609 19.5156C84.163 19.224 83.913 18.9948 83.6109 18.8281C83.3141 18.6615 82.9651 18.5781 82.5641 18.5781C82.1682 18.5781 81.8193 18.6615 81.5172 18.8281C81.2203 18.9948 80.9703 19.224 80.7672 19.5156C80.5693 19.8021 80.4208 20.1328 80.3219 20.5078C80.2229 20.8776 80.1734 21.2708 80.1734 21.6875ZM93.0878 24.0469V17.5469H94.5409V26H93.1581L93.0878 24.0469ZM93.3613 22.2656L93.9628 22.25C93.9628 22.8125 93.9029 23.3333 93.7831 23.8125C93.6685 24.2865 93.481 24.6979 93.2206 25.0469C92.9602 25.3958 92.6191 25.6693 92.1972 25.8672C91.7753 26.0599 91.2623 26.1562 90.6581 26.1562C90.2467 26.1562 89.8691 26.0964 89.5253 25.9766C89.1868 25.8568 88.8951 25.6719 88.6503 25.4219C88.4055 25.1719 88.2154 24.8464 88.08 24.4453C87.9498 24.0443 87.8847 23.5625 87.8847 23V17.5469H89.33V23.0156C89.33 23.3958 89.3717 23.7109 89.455 23.9609C89.5435 24.2057 89.6607 24.401 89.8066 24.5469C89.9576 24.6875 90.1243 24.7865 90.3066 24.8438C90.4941 24.901 90.6868 24.9297 90.8847 24.9297C91.4993 24.9297 91.9863 24.8125 92.3456 24.5781C92.705 24.3385 92.9628 24.0182 93.1191 23.6172C93.2805 23.2109 93.3613 22.7604 93.3613 22.2656ZM97.8694 18.875V26H96.4241V17.5469H97.8303L97.8694 18.875ZM100.51 17.5L100.502 18.8438C100.382 18.8177 100.268 18.8021 100.158 18.7969C100.054 18.7865 99.9345 18.7812 99.7991 18.7812C99.4657 18.7812 99.1715 18.8333 98.9162 18.9375C98.661 19.0417 98.4449 19.1875 98.2678 19.375C98.0907 19.5625 97.9501 19.7865 97.8459 20.0469C97.747 20.3021 97.6819 20.5833 97.6506 20.8906L97.2444 21.125C97.2444 20.6146 97.2939 20.1354 97.3928 19.6875C97.497 19.2396 97.6558 18.8438 97.8694 18.5C98.0829 18.151 98.3537 17.8802 98.6819 17.6875C99.0152 17.4896 99.411 17.3906 99.8694 17.3906C99.9735 17.3906 100.093 17.4036 100.229 17.4297C100.364 17.4505 100.458 17.474 100.51 17.5ZM106.448 23.7578C106.448 23.5495 106.401 23.3568 106.307 23.1797C106.219 22.9974 106.034 22.8333 105.752 22.6875C105.476 22.5365 105.06 22.4062 104.502 22.2969C104.034 22.1979 103.609 22.0807 103.229 21.9453C102.854 21.8099 102.534 21.6458 102.268 21.4531C102.008 21.2604 101.807 21.0339 101.667 20.7734C101.526 20.513 101.456 20.2083 101.456 19.8594C101.456 19.526 101.529 19.2109 101.674 18.9141C101.825 18.6172 102.036 18.3542 102.307 18.125C102.583 17.8958 102.914 17.7161 103.299 17.5859C103.685 17.4557 104.114 17.3906 104.588 17.3906C105.266 17.3906 105.844 17.5104 106.323 17.75C106.802 17.9896 107.169 18.3099 107.424 18.7109C107.68 19.1068 107.807 19.5469 107.807 20.0312H106.362C106.362 19.7969 106.292 19.5703 106.151 19.3516C106.016 19.1276 105.815 18.9427 105.549 18.7969C105.289 18.651 104.969 18.5781 104.588 18.5781C104.187 18.5781 103.862 18.6406 103.612 18.7656C103.367 18.8854 103.187 19.0391 103.073 19.2266C102.963 19.4141 102.909 19.612 102.909 19.8203C102.909 19.9766 102.935 20.1172 102.987 20.2422C103.044 20.362 103.143 20.474 103.284 20.5781C103.424 20.6771 103.622 20.7708 103.877 20.8594C104.133 20.9479 104.458 21.0365 104.854 21.125C105.547 21.2812 106.117 21.4688 106.565 21.6875C107.013 21.9062 107.346 22.1745 107.565 22.4922C107.784 22.8099 107.893 23.1953 107.893 23.6484C107.893 24.0182 107.815 24.3568 107.659 24.6641C107.508 24.9714 107.286 25.237 106.995 25.4609C106.708 25.6797 106.364 25.8516 105.963 25.9766C105.568 26.0964 105.122 26.1562 104.627 26.1562C103.883 26.1562 103.252 26.0234 102.737 25.7578C102.221 25.4922 101.831 25.1484 101.565 24.7266C101.299 24.3047 101.167 23.8594 101.167 23.3906H102.62C102.641 23.7865 102.755 24.1016 102.963 24.3359C103.172 24.5651 103.427 24.7292 103.729 24.8281C104.031 24.9219 104.331 24.9688 104.627 24.9688C105.023 24.9688 105.354 24.9167 105.62 24.8125C105.891 24.7083 106.096 24.5651 106.237 24.3828C106.377 24.2005 106.448 23.9922 106.448 23.7578ZM112.979 26.1562C112.391 26.1562 111.857 26.0573 111.378 25.8594C110.904 25.6562 110.495 25.3724 110.151 25.0078C109.813 24.6432 109.552 24.2109 109.37 23.7109C109.188 23.2109 109.097 22.6641 109.097 22.0703V21.7422C109.097 21.0547 109.198 20.4427 109.401 19.9062C109.604 19.3646 109.88 18.9062 110.229 18.5312C110.578 18.1562 110.974 17.8724 111.417 17.6797C111.86 17.487 112.318 17.3906 112.792 17.3906C113.396 17.3906 113.917 17.4948 114.354 17.7031C114.797 17.9115 115.159 18.2031 115.44 18.5781C115.722 18.9479 115.93 19.3854 116.065 19.8906C116.201 20.3906 116.268 20.9375 116.268 21.5312V22.1797H109.956V21H114.823V20.8906C114.802 20.5156 114.724 20.151 114.589 19.7969C114.459 19.4427 114.25 19.151 113.964 18.9219C113.677 18.6927 113.287 18.5781 112.792 18.5781C112.464 18.5781 112.162 18.6484 111.886 18.7891C111.61 18.9245 111.373 19.1276 111.175 19.3984C110.977 19.6693 110.823 20 110.714 20.3906C110.604 20.7812 110.55 21.2318 110.55 21.7422V22.0703C110.55 22.4714 110.604 22.849 110.714 23.2031C110.828 23.5521 110.992 23.8594 111.206 24.125C111.425 24.3906 111.688 24.599 111.995 24.75C112.307 24.901 112.662 24.9766 113.057 24.9766C113.568 24.9766 114 24.8724 114.354 24.6641C114.709 24.4557 115.018 24.1771 115.284 23.8281L116.159 24.5234C115.977 24.7995 115.745 25.0625 115.464 25.3125C115.182 25.5625 114.836 25.7656 114.425 25.9219C114.018 26.0781 113.537 26.1562 112.979 26.1562ZM122.558 23.7578C122.558 23.5495 122.511 23.3568 122.417 23.1797C122.329 22.9974 122.144 22.8333 121.863 22.6875C121.586 22.5365 121.17 22.4062 120.613 22.2969C120.144 22.1979 119.719 22.0807 119.339 21.9453C118.964 21.8099 118.644 21.6458 118.378 21.4531C118.118 21.2604 117.917 21.0339 117.777 20.7734C117.636 20.513 117.566 20.2083 117.566 19.8594C117.566 19.526 117.639 19.2109 117.784 18.9141C117.935 18.6172 118.146 18.3542 118.417 18.125C118.693 17.8958 119.024 17.7161 119.409 17.5859C119.795 17.4557 120.224 17.3906 120.698 17.3906C121.376 17.3906 121.954 17.5104 122.433 17.75C122.912 17.9896 123.279 18.3099 123.534 18.7109C123.79 19.1068 123.917 19.5469 123.917 20.0312H122.472C122.472 19.7969 122.402 19.5703 122.261 19.3516C122.126 19.1276 121.925 18.9427 121.659 18.7969C121.399 18.651 121.079 18.5781 120.698 18.5781C120.297 18.5781 119.972 18.6406 119.722 18.7656C119.477 18.8854 119.297 19.0391 119.183 19.2266C119.073 19.4141 119.019 19.612 119.019 19.8203C119.019 19.9766 119.045 20.1172 119.097 20.2422C119.154 20.362 119.253 20.474 119.394 20.5781C119.534 20.6771 119.732 20.7708 119.988 20.8594C120.243 20.9479 120.568 21.0365 120.964 21.125C121.657 21.2812 122.227 21.4688 122.675 21.6875C123.123 21.9062 123.456 22.1745 123.675 22.4922C123.894 22.8099 124.003 23.1953 124.003 23.6484C124.003 24.0182 123.925 24.3568 123.769 24.6641C123.618 24.9714 123.396 25.237 123.105 25.4609C122.818 25.6797 122.474 25.8516 122.073 25.9766C121.678 26.0964 121.232 26.1562 120.738 26.1562C119.993 26.1562 119.363 26.0234 118.847 25.7578C118.331 25.4922 117.941 25.1484 117.675 24.7266C117.409 24.3047 117.277 23.8594 117.277 23.3906H118.73C118.751 23.7865 118.865 24.1016 119.073 24.3359C119.282 24.5651 119.537 24.7292 119.839 24.8281C120.141 24.9219 120.441 24.9688 120.738 24.9688C121.133 24.9688 121.464 24.9167 121.73 24.8125C122.001 24.7083 122.206 24.5651 122.347 24.3828C122.488 24.2005 122.558 23.9922 122.558 23.7578Z" fill="white"/>
<path d="M26.5861 21.9237C27.0038 22.8957 28.0366 22.5132 28.2207 22.0632L29.8105 19.3003L32.6621 17.7568C33.1111 17.5903 33.5198 16.5284 32.5228 16.0694L25.0009 13.4954C24.0623 13.3244 23.6717 14.1029 23.8782 14.7104L26.5861 21.9237ZM30.044 17.1943L28.7821 17.8513C28.5935 17.8963 28.5037 18.0403 28.4094 18.1798L27.6639 19.4893L26.3077 15.8849L30.044 17.1943Z" fill="white"/>
<path d="M36.0704 9H15.9341C15.4221 9 15 9.42299 15 9.93598V24.9161C15 25.4291 15.4221 25.8521 15.9341 25.8521H22.0549V29.128H20.6538C20.1419 29.128 19.7197 29.551 19.7197 30.064C19.7197 30.577 20.1419 31 20.6538 31H31.3057C31.8177 31 32.2398 30.577 32.2398 30.064C32.2398 29.551 31.8177 29.128 31.3057 29.128H29.9496V25.8521H36.021C36.5329 25.8521 36.9551 25.4291 37 24.9611V9.93598C37.0044 9.42299 36.5823 9 36.0704 9ZM28.0814 29.1325H23.8781V25.8521H28.0814V29.1325ZM35.1363 24.0297H16.8232V10.827H35.1363V24.0297Z" fill="white"/>
</svg>
